<svg width="30" height="30" viewBox="0 0 30 30" fill="none" xmlns="http://www.w3.org/2000/svg">
<rect x="1" y="1" width="28.3138" height="28.0078" rx="8.2273" fill="white"/>
<rect x="0.706168" y="0.706168" width="28.9014" height="28.5955" rx="8.52113" stroke="black" stroke-opacity="0.21" stroke-width="0.587664"/>
<g clip-path="url(#clip0_179_3062)">
<path fill-rule="evenodd" clip-rule="evenodd" d="M11.5367 10C11.2839 10 11.0635 10.1721 11.0022 10.4173L10.3316 13.0997C10.269 13.3502 10.0439 13.526 9.78561 13.526C9.47477 13.526 9.22278 13.778 9.22278 14.0888V17.7682C9.22278 17.9812 9.39544 18.1538 9.60843 18.1538C9.82142 18.1538 9.99409 18.3265 9.99409 18.5395C9.99409 18.7525 10.1668 18.9251 10.3797 18.9251H10.7103C10.9233 18.9251 11.096 18.7525 11.096 18.5395C11.096 18.3265 11.2686 18.1538 11.4816 18.1538H17.5419C17.7549 18.1538 17.9276 18.3265 17.9276 18.5395C17.9276 18.7525 18.1002 18.9251 18.3132 18.9251H18.6438C18.8568 18.9251 19.0294 18.7525 19.0294 18.5395C19.0294 18.3265 19.2021 18.1538 19.4151 18.1538C19.6281 18.1538 19.8007 17.9812 19.8007 17.7682V14.0888C19.8007 13.778 19.5487 13.526 19.2379 13.526C18.9796 13.526 18.7545 13.3502 18.6919 13.0997L18.0213 10.4173C17.96 10.1721 17.7396 10 17.4868 10H11.5367ZM11.1897 14.2106L11.8556 11.547C11.921 11.2854 12.156 11.1019 12.4257 11.1019H16.5978C16.8675 11.1019 17.1025 11.2854 17.1679 11.547L17.8338 14.2106L17.8572 14.3043C17.9048 14.4944 18.0756 14.6279 18.2717 14.6279C18.5076 14.6279 18.6989 14.8191 18.6989 15.055V16.4643C18.6989 16.7889 18.4358 17.052 18.1112 17.052H10.9123C10.5878 17.052 10.3246 16.7889 10.3246 16.4643V15.055C10.3246 14.8191 10.5159 14.6279 10.7518 14.6279C10.9479 14.6279 11.1187 14.4944 11.1663 14.3043L11.1897 14.2106ZM12.8202 13.8565C12.4443 13.8565 12.165 13.5084 12.2466 13.1414L12.4261 12.3334C12.4859 12.0645 12.7244 11.8732 12.9998 11.8732H16.0237C16.2992 11.8732 16.5376 12.0645 16.5974 12.3334L16.7769 13.1414C16.8585 13.5084 16.5792 13.8565 16.2033 13.8565H12.8202ZM12.308 15.8399C12.308 16.1442 12.0614 16.3908 11.7571 16.3908C11.4528 16.3908 11.2061 16.1442 11.2061 15.8399C11.2061 15.5356 11.4528 15.289 11.7571 15.289C12.0614 15.289 12.308 15.5356 12.308 15.8399ZM17.8174 15.8399C17.8174 15.5356 17.5707 15.289 17.2664 15.289C16.9622 15.289 16.7155 15.5356 16.7155 15.8399C16.7155 16.1442 16.9622 16.3908 17.2664 16.3908C17.5707 16.3908 17.8174 16.1442 17.8174 15.8399Z" fill="black"/>
</g>
<defs>
<clipPath id="clip0_179_3062">
<rect width="10.578" height="10.578" fill="white" transform="translate(9.23059 9.22852)"/>
</clipPath>
</defs>
</svg>
