<svg width="18" height="17" viewBox="0 0 18 17" fill="none" xmlns="http://www.w3.org/2000/svg">
<g clip-path="url(#clip0_179_3059)">
<path d="M8.43929 0.712894C8.78749 0.460286 9.25866 0.460285 9.60686 0.712894L10.2614 1.18781C10.4807 1.34691 10.7555 1.40961 11.0221 1.36142L11.8179 1.21756C12.2413 1.14105 12.6658 1.34547 12.8699 1.72414L13.2536 2.43606C13.3822 2.67454 13.6025 2.85023 13.8636 2.92249L14.643 3.13819C15.0576 3.25292 15.3514 3.62129 15.371 4.05102L15.4078 4.85893C15.4202 5.12957 15.5424 5.38344 15.7463 5.56184L16.355 6.09437C16.6788 6.37762 16.7836 6.83697 16.6148 7.23264L16.2974 7.97656C16.1912 8.22574 16.1912 8.5075 16.2974 8.75669L16.6148 9.5006C16.7836 9.89625 16.6788 10.3556 16.355 10.6389L15.7463 11.1714C15.5424 11.3498 15.4202 11.6036 15.4078 11.8743L15.371 12.6822C15.3514 13.1119 15.0576 13.4803 14.643 13.595L13.8636 13.8108C13.6025 13.883 13.3822 14.0587 13.2536 14.2972L12.8699 15.0091C12.6658 15.3878 12.2413 15.5922 11.8179 15.5157L11.0221 15.3718C10.7555 15.3236 10.4807 15.3864 10.2614 15.5454L9.60686 16.0204C9.25866 16.273 8.78749 16.273 8.43929 16.0204L7.7847 15.5454C7.56539 15.3864 7.29067 15.3236 7.02407 15.3718L6.22821 15.5157C5.8049 15.5922 5.38039 15.3878 5.17628 15.0091L4.79255 14.2972C4.664 14.0587 4.44369 13.883 4.18259 13.8108L3.40313 13.595C2.98853 13.4803 2.69477 13.1119 2.67517 12.6822L2.63833 11.8743C2.62599 11.6036 2.50372 11.3498 2.29983 11.1714L1.69114 10.6389C1.36739 10.3556 1.26254 9.89625 1.43134 9.5006L1.74868 8.75669C1.85499 8.5075 1.85499 8.22574 1.74868 7.97656L1.43134 7.23264C1.26254 6.83697 1.36739 6.37762 1.69114 6.09437L2.29983 5.56184C2.50372 5.38344 2.62599 5.12957 2.63833 4.85893L2.67517 4.05102C2.69477 3.62129 2.98853 3.25292 3.40313 3.13819L4.18259 2.92249C4.44369 2.85023 4.664 2.67454 4.79255 2.43606L5.17628 1.72414C5.38039 1.34547 5.8049 1.14105 6.2282 1.21756L7.02407 1.36142C7.29067 1.40961 7.56539 1.34691 7.7847 1.18782L8.43929 0.712894Z" fill="#1A1A1A"/>
<path d="M12.8191 6.15234L8.30011 10.6713C8.16145 10.81 7.9367 10.81 7.79804 10.6713L5.66406 8.53738" stroke="white" stroke-width="1.11404" stroke-linecap="round"/>
</g>
<defs>
<clipPath id="clip0_179_3059">
<rect width="16.1545" height="16.1545" fill="white" transform="translate(0.9375 0.291016)"/>
</clipPath>
</defs>
</svg>
