<svg width="48" height="48" viewBox="0 0 48 48" fill="none" xmlns="http://www.w3.org/2000/svg">
<path d="M1 23.4C1 15.5593 1 11.6389 2.52591 8.64413C3.86814 6.00986 6.00986 3.86814 8.64413 2.52591C11.6389 1 15.5593 1 23.4 1H24.6C32.4407 1 36.3611 1 39.3559 2.52591C41.9901 3.86814 44.1319 6.00986 45.4741 8.64413C47 11.6389 47 15.5593 47 23.4V24.6C47 32.4407 47 36.3611 45.4741 39.3559C44.1319 41.9901 41.9901 44.1319 39.3559 45.4741C36.3611 47 32.4407 47 24.6 47H23.4C15.5593 47 11.6389 47 8.64413 45.4741C6.00986 44.1319 3.86814 41.9901 2.52591 39.3559C1 36.3611 1 32.4407 1 24.6V23.4Z" fill="white"/>
<path d="M2.08041 8.41714C1.27555 9.99675 0.885664 11.7987 0.692399 14.1641C0.499999 16.519 0.499999 19.476 0.5 23.3764V23.4V24.6V24.6236C0.499999 28.524 0.499999 31.481 0.692399 33.8359C0.885664 36.2013 1.27555 38.0032 2.08041 39.5829C3.47057 42.3112 5.68879 44.5294 8.41714 45.9196C9.99675 46.7244 11.7987 47.1143 14.1641 47.3076C16.519 47.5 19.476 47.5 23.3764 47.5H23.4H24.6H24.6236C28.524 47.5 31.481 47.5 33.8359 47.3076C36.2013 47.1143 38.0032 46.7244 39.5829 45.9196C42.3112 44.5294 44.5294 42.3112 45.9196 39.5829C46.7244 38.0032 47.1143 36.2013 47.3076 33.8359C47.5 31.481 47.5 28.524 47.5 24.6236V24.6V23.4V23.3764C47.5 19.476 47.5 16.519 47.3076 14.1641C47.1143 11.7987 46.7244 9.99675 45.9196 8.41714C44.5294 5.68879 42.3112 3.47057 39.5829 2.08041C38.0032 1.27555 36.2013 0.885664 33.8359 0.692399C31.481 0.499999 28.524 0.499999 24.6236 0.5H24.6H23.4H23.3764C19.476 0.499999 16.519 0.499999 14.1641 0.692399C11.7987 0.885664 9.99675 1.27555 8.41714 2.08041C5.68879 3.47057 3.47057 5.68879 2.08041 8.41714Z" stroke="black" stroke-opacity="0.21"/>
<path fill-rule="evenodd" clip-rule="evenodd" d="M20.7072 15.5649C21.0688 15.2032 21.5594 15 22.0709 15H25.928C26.4395 15 26.93 15.2032 27.2917 15.5649C27.6534 15.9265 27.8566 16.4171 27.8566 16.9286V18.657C29.5118 19.854 30.5887 21.8012 30.5887 24C30.5887 26.1988 29.5118 28.146 27.8566 29.343V31.0714C27.8566 31.5829 27.6534 32.0735 27.2917 32.4352C26.93 32.7969 26.4395 33 25.928 33H22.0709C21.5594 33 21.0688 32.7969 20.7072 32.4352C20.3455 32.0735 20.1423 31.5829 20.1423 31.0714V29.343C18.4871 28.146 17.4102 26.1988 17.4102 24C17.4102 21.8012 18.4871 19.854 20.1423 18.657V16.9286C20.1423 16.4171 20.3455 15.9265 20.7072 15.5649ZM23.9994 20.4643C24.4432 20.4643 24.803 20.8241 24.803 21.2679V23.6672L26.1748 25.0389C26.4886 25.3528 26.4886 25.8615 26.1748 26.1754C25.861 26.4892 25.3522 26.4892 25.0384 26.1754L23.4312 24.5682C23.2805 24.4175 23.1959 24.2131 23.1959 24V21.2679C23.1959 20.8241 23.5556 20.4643 23.9994 20.4643ZM19.0173 24C19.0173 21.2484 21.2479 19.0179 23.9994 19.0179C26.751 19.0179 28.9816 21.2484 28.9816 24C28.9816 26.7516 26.751 28.9821 23.9994 28.9821C21.2479 28.9821 19.0173 26.7516 19.0173 24Z" fill="black"/>
</svg>
