<svg width="235" height="36" viewBox="0 0 235 36" fill="none" xmlns="http://www.w3.org/2000/svg">
<g filter="url(#filter0_d_403_1748)">
<g clip-path="url(#clip0_403_1748)">
<path d="M2.47431 -220.564C1.10779 -228.026 6.04854 -235.182 13.5098 -236.549L248.169 -279.526C255.63 -280.893 262.787 -275.952 264.153 -268.491L308.579 -25.9247C309.946 -18.4635 305.005 -11.3071 297.544 -9.94059L62.8841 33.037C55.4229 34.4036 48.2665 29.4628 46.9 22.0015L2.47431 -220.564Z" fill="#F4F4F5"/>
<path d="M59.9488 7.11566C59.4779 7.19585 59.0513 7.3529 58.6692 7.5868C58.2919 7.81374 57.9987 8.08598 57.7898 8.40351C57.5808 8.72105 57.5091 9.05896 57.5748 9.41727C57.6554 9.8578 57.8372 10.1706 58.12 10.3555C58.4027 10.5405 58.757 10.6517 59.1827 10.689C59.6133 10.7195 60.0892 10.7325 60.6105 10.7281C61.4447 10.7088 62.2329 10.7861 62.975 10.9598C63.723 11.1324 64.3512 11.4301 64.8597 11.853C65.373 12.269 65.6958 12.8382 65.8281 13.5607C65.9497 14.2244 65.8816 14.847 65.6238 15.4285C65.365 16.004 64.968 16.5047 64.4328 16.9306C63.9024 17.3495 63.2894 17.6651 62.5937 17.8775L62.9213 19.6661L61.6261 19.9033L61.2986 18.1147C60.6945 18.1646 60.1048 18.1269 59.5294 18.0016C58.9599 17.8753 58.4445 17.6631 57.9832 17.3651C57.5218 17.0671 57.1584 16.6905 56.8929 16.2353L58.4932 15.2774C58.6447 15.5411 58.8819 15.7587 59.2047 15.9302C59.5323 16.0949 59.9042 16.2028 60.3203 16.2541C60.7424 16.3043 61.1736 16.289 61.6142 16.2084C62.0841 16.1223 62.5106 15.9652 62.8938 15.7372C63.2829 15.5081 63.579 15.2353 63.7821 14.9189C63.991 14.6014 64.0622 14.2605 63.9955 13.8963C63.9266 13.5204 63.735 13.2368 63.4207 13.0454C63.1123 12.853 62.7366 12.7245 62.2938 12.6599C61.8568 12.5942 61.4086 12.5671 60.9493 12.5783C60.0601 12.5955 59.2471 12.5319 58.5103 12.3876C57.7795 12.2422 57.1697 11.9623 56.681 11.5479C56.1982 11.1325 55.8852 10.5341 55.7421 9.75291C55.6206 9.08917 55.6887 8.46657 55.9464 7.88513C56.2042 7.30369 56.5982 6.80352 57.1286 6.38463C57.6638 5.95879 58.2797 5.6426 58.9765 5.43607L58.6441 3.62106L59.9392 3.38385L60.2717 5.19886C60.858 5.15217 61.436 5.19202 62.0055 5.3184C62.5809 5.44371 63.1022 5.65482 63.5694 5.95172C64.0355 6.24274 64.4059 6.62415 64.6805 7.09595L63.0594 8.03941C62.9068 7.76988 62.6702 7.5552 62.3495 7.39538C62.0278 7.22969 61.6559 7.12174 61.2339 7.07155C60.8177 7.02027 60.3894 7.03498 59.9488 7.11566ZM69.2403 16.469L67.3168 5.96657L65.8454 6.23605L66.012 4.31144L68.8138 3.79829L71.073 16.1333L69.2403 16.469ZM73.2382 16.7567L73.239 13.6786L75.0716 13.3429L74.454 16.534L73.2382 16.7567ZM77.0725 15.0345L76.774 13.4045C77.1276 12.9816 77.5326 12.4916 77.9891 11.9344C78.4445 11.3714 78.9038 10.7804 79.3672 10.1613C79.8295 9.5363 80.2482 8.92234 80.6234 8.31938C80.9976 7.71054 81.2861 7.14775 81.4889 6.63101C81.6966 6.10731 81.7686 5.67219 81.7052 5.32563C81.6331 4.93208 81.4705 4.59153 81.2175 4.30397C80.9693 4.00946 80.666 3.79487 80.3074 3.66021C79.9478 3.51966 79.5712 3.48543 79.1776 3.55751C78.7841 3.62959 78.4411 3.7956 78.1488 4.05556C77.8612 4.30856 77.6477 4.61782 77.5082 4.98333C77.3736 5.34189 77.3423 5.71795 77.4143 6.11149L75.5817 6.44714C75.4451 5.70116 75.504 4.99526 75.7584 4.32943C76.0177 3.65665 76.4146 3.08918 76.9492 2.62702C77.4886 2.15791 78.1195 1.8572 78.842 1.72487C79.5703 1.59148 80.2669 1.64907 80.9316 1.89764C81.5964 2.14621 82.1633 2.54019 82.6324 3.07957C83.1005 3.61308 83.4023 4.24988 83.5378 4.98999C83.6131 5.40115 83.6054 5.83967 83.5147 6.30553C83.4239 6.77139 83.2673 7.25843 83.0447 7.76666C82.8279 8.27381 82.5623 8.79598 82.2479 9.33316C81.9335 9.87035 81.5897 10.4129 81.2165 10.9609C80.8433 11.5088 80.4603 12.0525 80.0673 12.5919L84.878 11.7108L85.2136 13.5435L77.0725 15.0345ZM90.6129 12.7914C89.867 12.928 89.1656 12.8773 88.5089 12.6394C87.858 12.4005 87.309 12.0214 86.8618 11.5023C86.4146 10.9832 86.126 10.3683 85.9958 9.65754L87.8284 9.32189C87.8962 9.69195 88.0462 10.0136 88.2783 10.2867C88.5105 10.5599 88.7989 10.759 89.1435 10.8841C89.4882 11.0091 89.8661 11.034 90.2773 10.9587C90.6473 10.891 90.9743 10.737 91.2581 10.4968C91.542 10.2566 91.7528 9.96605 91.8907 9.62511C92.0286 9.28417 92.0637 8.92868 91.9959 8.55863C91.9098 8.08872 91.7144 7.71776 91.4096 7.44576C91.1048 7.17376 90.7182 7.00174 90.2497 6.9297C89.786 6.85072 89.2692 6.8634 88.6995 6.96775L88.4348 5.52279C89.2102 5.38078 89.8019 5.11457 90.21 4.72414C90.6181 4.33372 90.7667 3.836 90.6559 3.231C90.5978 2.91381 90.4599 2.64159 90.2423 2.41434C90.0294 2.18014 89.7709 2.01196 89.4669 1.90981C89.1676 1.8007 88.8624 1.77465 88.551 1.83167C88.228 1.89084 87.9312 2.02715 87.6607 2.24061C87.395 2.44712 87.1923 2.69975 87.0528 2.99849C86.9121 3.29137 86.8709 3.5964 86.929 3.91358L85.0963 4.24923C85.007 3.7617 85.023 3.28525 85.1442 2.81989C85.2701 2.34757 85.4768 1.91815 85.7642 1.53162C86.0564 1.13814 86.409 0.80947 86.8221 0.545622C87.2399 0.274824 87.6956 0.0942423 88.189 0.00387629C88.8351 -0.11446 89.4638 -0.0626601 90.0751 0.159276C90.6912 0.374263 91.2162 0.721293 91.6499 1.20037C92.0885 1.67249 92.3681 2.23748 92.4885 2.89535C92.5843 3.41812 92.546 3.93813 92.3736 4.45537C92.206 4.96566 91.9138 5.35914 91.497 5.63581C91.9164 5.70471 92.2862 5.86767 92.6065 6.1247C92.9315 6.37478 93.1976 6.68422 93.4048 7.05302C93.6109 7.41595 93.7522 7.80594 93.8285 8.22298C93.9576 8.92784 93.8968 9.60677 93.6461 10.2598C93.3943 10.9069 93.0006 11.4586 92.4649 11.9149C91.9351 12.3701 91.3178 12.6623 90.6129 12.7914ZM100.877 10.6747L100.3 7.52041L95.0222 8.487L94.6849 6.64556L98.1778 -1.5797L100.451 -1.99603L101.797 5.35213L102.925 5.14558L103.26 6.97821L102.132 7.18477L102.71 10.339L100.877 10.6747ZM96.8171 6.25505L99.9641 5.68778L99.0638 0.871528L96.8171 6.25505Z" fill="black"/>
<path d="M112.043 9.08174L111.73 7.37128L110.02 7.68455L109.893 6.99379L111.604 6.68052L111.29 4.97006L111.981 4.84355L112.294 6.55401L114.005 6.24074L114.131 6.9315L112.421 7.24477L112.734 8.95523L112.043 9.08174ZM115.824 8.81429L114.896 3.7487L114.251 3.86693L114.317 3.14078L115.46 2.93143L116.515 8.68778L115.824 8.81429ZM119.39 8.27173C119.033 8.33699 118.694 8.30988 118.372 8.19041C118.05 8.07093 117.777 7.88285 117.555 7.62616C117.334 7.36622 117.192 7.0622 117.128 6.71407L117.819 6.58756C117.86 6.80959 117.952 7.00377 118.096 7.17008C118.239 7.33365 118.413 7.45344 118.616 7.52945C118.823 7.60496 119.038 7.62213 119.263 7.58096C119.485 7.5403 119.678 7.44833 119.842 7.30504C120.005 7.16176 120.125 6.98825 120.201 6.78452C120.276 6.57804 120.294 6.36379 120.253 6.14176C120.212 5.91973 120.123 5.72505 119.985 5.55773C119.849 5.38991 119.673 5.26925 119.455 5.19575C119.237 5.11951 118.987 5.10725 118.705 5.15896L117.286 5.41876L117.345 2.58619L120.076 2.08616L120.202 2.77693L118.031 3.17454L118.011 4.57212L118.608 4.46704C119.001 4.40347 119.361 4.42818 119.688 4.54117C120.017 4.65091 120.291 4.83301 120.511 5.08746C120.732 5.33867 120.877 5.64793 120.944 6.01524C120.992 6.27565 120.987 6.53139 120.931 6.78246C120.875 7.03078 120.775 7.25873 120.632 7.46629C120.488 7.67385 120.311 7.84806 120.099 7.98891C119.889 8.12926 119.653 8.22353 119.39 8.27173ZM122.463 7.59839L124.731 1.23357L125.528 1.08748L123.26 7.4523L122.463 7.59839ZM122.515 4.0319C122.32 4.06755 122.135 4.05333 121.959 3.98925C121.786 3.92467 121.637 3.82167 121.511 3.68026C121.386 3.53884 121.306 3.37083 121.27 3.17621C121.234 2.97611 121.249 2.78915 121.316 2.61533C121.383 2.43878 121.488 2.28934 121.63 2.16702C121.771 2.04471 121.938 1.96598 122.13 1.93084C122.322 1.89569 122.506 1.91153 122.683 1.97835C122.859 2.04243 123.008 2.14543 123.13 2.28735C123.255 2.42602 123.335 2.59404 123.371 2.7914C123.408 2.98876 123.392 3.17572 123.325 3.35227C123.258 3.52609 123.154 3.67415 123.012 3.79647C122.87 3.91879 122.704 3.99726 122.515 4.0319ZM122.422 3.52617C122.573 3.49856 122.691 3.42313 122.776 3.29989C122.864 3.17341 122.893 3.03479 122.866 2.88402C122.838 2.73052 122.761 2.61148 122.635 2.52689C122.511 2.43907 122.374 2.40896 122.223 2.43657C122.072 2.46418 121.953 2.54123 121.866 2.66771C121.778 2.79146 121.748 2.93008 121.776 3.08358C121.804 3.23434 121.881 3.35339 122.007 3.44071C122.133 3.52529 122.272 3.55378 122.422 3.52617ZM125.866 6.75839C125.674 6.79353 125.488 6.77794 125.309 6.71162C125.132 6.64206 124.981 6.53657 124.856 6.39516C124.733 6.2505 124.655 6.08498 124.621 5.89858C124.584 5.70122 124.6 5.51426 124.667 5.3377C124.736 5.16065 124.842 5.01096 124.984 4.88864C125.126 4.76633 125.291 4.68785 125.48 4.65321C125.678 4.61706 125.865 4.63377 126.042 4.70333C126.218 4.77015 126.368 4.87452 126.49 5.01644C126.613 5.15835 126.691 5.32388 126.726 5.51302C126.761 5.70764 126.746 5.89322 126.679 6.06978C126.615 6.24584 126.512 6.39639 126.371 6.52145C126.229 6.64376 126.06 6.72274 125.866 6.75839ZM125.773 6.25265C125.924 6.22504 126.043 6.14799 126.13 6.02151C126.218 5.89503 126.248 5.7564 126.22 5.60564C126.192 5.45488 126.115 5.33584 125.989 5.24851C125.862 5.16119 125.724 5.13133 125.573 5.15894C125.422 5.18656 125.303 5.2636 125.216 5.39009C125.128 5.51657 125.099 5.65519 125.126 5.80595C125.154 5.95672 125.231 6.07576 125.357 6.16308C125.484 6.25041 125.622 6.28026 125.773 6.25265Z" fill="#3F3F46"/>
</g>
<path d="M13.5636 -236.255L248.223 -279.232C255.522 -280.569 262.523 -275.736 263.86 -268.437L308.285 -25.8709C309.622 -18.5719 304.789 -11.5711 297.49 -10.2343L62.8304 32.7433C55.5313 34.0802 48.5305 29.2468 47.1937 21.9477L2.768 -220.618C1.43119 -227.917 6.26454 -234.918 13.5636 -236.255Z" stroke="#D4D4D8" stroke-width="0.597153"/>
</g>
<defs>
<filter id="filter0_d_403_1748" x="-0.597153" y="-282.597" width="312.248" height="318.706" filterUnits="userSpaceOnUse" color-interpolation-filters="sRGB">
<feFlood flood-opacity="0" result="BackgroundImageFix"/>
<feColorMatrix in="SourceAlpha" type="matrix" values="0 0 0 0 0 0 0 0 0 0 0 0 0 0 0 0 0 0 127 0" result="hardAlpha"/>
<feMorphology radius="0.597153" operator="dilate" in="SourceAlpha" result="effect1_dropShadow_403_1748"/>
<feOffset/>
<feComposite in2="hardAlpha" operator="out"/>
<feColorMatrix type="matrix" values="0 0 0 0 0.956863 0 0 0 0 0.956863 0 0 0 0 0.960784 0 0 0 1 0"/>
<feBlend mode="normal" in2="BackgroundImageFix" result="effect1_dropShadow_403_1748"/>
<feBlend mode="normal" in="SourceGraphic" in2="effect1_dropShadow_403_1748" result="shape"/>
</filter>
<clipPath id="clip0_403_1748">
<path d="M2.47431 -220.564C1.10779 -228.026 6.04854 -235.182 13.5098 -236.549L248.169 -279.526C255.63 -280.893 262.787 -275.952 264.153 -268.491L308.579 -25.9247C309.946 -18.4635 305.005 -11.3071 297.544 -9.94059L62.8841 33.037C55.4229 34.4036 48.2665 29.4628 46.9 22.0015L2.47431 -220.564Z" fill="white"/>
</clipPath>
</defs>
</svg>
