<svg width="30" height="30" viewBox="0 0 30 30" fill="none" xmlns="http://www.w3.org/2000/svg">
<g clip-path="url(#clip0_2348_2476)">
<path d="M21.2562 0.782227H8.74431C4.34697 0.782227 0.782227 4.34697 0.782227 8.74431V21.2562C0.782227 25.6535 4.34697 29.2182 8.74431 29.2182H21.2562C25.6535 29.2182 29.2182 25.6535 29.2182 21.2562V8.74431C29.2182 4.34697 25.6535 0.782227 21.2562 0.782227Z" fill="url(#paint0_linear_2348_2476)"/>
<path fill-rule="evenodd" clip-rule="evenodd" d="M9.69455 7.53516C8.89458 7.53516 8.24609 8.18364 8.24609 8.98362V10.6709C8.24609 11.4709 8.89458 12.1195 9.69455 12.1195H12.2573V21.5587C12.2573 22.3586 12.9058 23.0071 13.7057 23.0071H15.3931C16.193 23.0071 16.8416 22.3586 16.8416 21.5587V10.6832C16.8416 10.6792 16.8416 10.6751 16.8416 10.6709V8.98362C16.8416 8.18364 16.1931 7.53516 15.3931 7.53516H13.7057H9.69455Z" fill="white"/>
<path d="M20.2804 12.1195C21.5463 12.1195 22.5726 11.0932 22.5726 9.82731C22.5726 8.56141 21.5463 7.53516 20.2804 7.53516C19.0145 7.53516 17.9883 8.56141 17.9883 9.82731C17.9883 11.0932 19.0145 12.1195 20.2804 12.1195Z" fill="white"/>
</g>
<defs>
<linearGradient id="paint0_linear_2348_2476" x1="30.1424" y1="30.3557" x2="0.782227" y2="0.782227" gradientUnits="userSpaceOnUse">
<stop stop-color="#0016DE"/>
<stop offset="1" stop-color="#0364FF"/>
</linearGradient>
<clipPath id="clip0_2348_2476">
<rect width="30" height="30" fill="white"/>
</clipPath>
</defs>
</svg>
