<svg width="1213" height="776" viewBox="0 0 1213 776" fill="none" xmlns="http://www.w3.org/2000/svg">
<mask id="mask0_550_5190" style="mask-type:alpha" maskUnits="userSpaceOnUse" x="0" y="0" width="1213" height="776">
<rect y="0.5" width="1213" height="775" fill="url(#paint0_linear_550_5190)"/>
</mask>
<g mask="url(#mask0_550_5190)">
<mask id="mask1_550_5190" style="mask-type:alpha" maskUnits="userSpaceOnUse" x="140" y="-200" width="963" height="964">
<path fill-rule="evenodd" clip-rule="evenodd" d="M621.5 763.5C887.425 763.5 1103 547.925 1103 282C1103 16.0749 887.425 -199.5 621.5 -199.5C355.575 -199.5 140 16.0749 140 282C140 547.925 355.575 763.5 621.5 763.5ZM621.5 633.657C815.715 633.657 973.157 476.215 973.157 282C973.157 87.785 815.715 -69.6573 621.5 -69.6573C427.285 -69.6573 269.843 87.785 269.843 282C269.843 476.215 427.285 633.657 621.5 633.657Z" fill="#D9D9D9"/>
</mask>
<g mask="url(#mask1_550_5190)">
<path fill-rule="evenodd" clip-rule="evenodd" d="M629.618 405.912V759.444H618.798V405.913L587.986 758.098L577.207 757.155L608.019 404.97L546.629 753.13L535.973 751.251L597.363 403.091L505.863 744.575L495.411 741.775L586.911 400.292L465.997 732.501L455.829 728.8L576.744 396.59L427.336 716.998L417.529 712.425L566.938 392.016L390.172 698.184L380.802 692.773L557.567 386.607L354.79 676.202L345.927 669.996L548.704 380.4L321.458 651.221L313.17 644.266L540.414 373.447L290.431 623.43L282.78 615.779L532.764 365.795L261.944 593.04L254.988 584.751L525.809 357.506L236.213 560.283L230.007 551.419L519.603 348.642L213.436 525.408L208.026 516.037L514.19 339.273L193.785 488.681L189.212 478.874L509.619 329.466L177.409 450.38L173.709 440.213L505.919 319.298L164.434 410.798L161.634 400.347L503.116 308.847L154.959 370.236L153.08 359.581L501.239 298.191L149.054 329.003L148.111 318.224L500.295 287.412H146.766V276.592H500.307L148.111 245.778L149.054 234.999L501.241 265.812L153.08 204.421L154.959 193.766L503.118 255.155L161.634 163.655L164.434 153.204L505.918 244.704L173.709 123.79L177.409 113.622L509.619 234.536L189.212 85.128L193.785 75.3215L514.192 224.73L208.026 47.9648L213.436 38.5942L519.602 215.36L230.007 12.5827L236.213 3.71926L525.806 206.494L254.988 -20.7487L261.943 -29.0375L532.765 198.209L282.78 -51.7764L290.431 -59.4274L540.415 190.556L313.17 -80.2637L321.458 -87.2188L548.703 183.601L345.927 -105.994L354.79 -112.2L557.567 177.395L380.802 -128.771L390.172 -134.181L566.937 171.985L417.529 -148.422L427.335 -152.995L576.744 167.412L455.829 -164.798L465.997 -168.498L586.911 163.71L495.411 -177.773L505.863 -180.573L597.363 160.912L535.973 -187.249L546.629 -189.127L608.019 159.032L577.207 -193.153L587.986 -194.096L618.798 158.088V-195.441H629.618V158.089L660.43 -194.096L671.209 -193.153L640.397 159.032L701.787 -189.127L712.443 -187.248L651.053 160.911L742.553 -180.573L753.005 -177.773L661.504 163.713L782.419 -168.498L792.587 -164.798L671.672 167.412L821.081 -152.995L830.887 -148.422L681.479 171.984L858.244 -134.181L867.615 -128.771L690.849 177.395L893.626 -112.2L902.49 -105.994L699.713 183.601L926.958 -87.2184L935.246 -80.2633L708 190.558L957.985 -59.427L965.636 -51.7759L715.653 198.208L986.473 -29.0371L993.428 -20.7484L722.608 206.496L1012.2 3.71986L1018.41 12.5833L728.814 215.36L1034.98 38.5948L1040.39 47.9654L734.223 224.731L1054.63 75.3223L1059.2 85.1288L738.797 234.537L1071.01 113.623L1074.71 123.79L742.498 244.705L1083.98 153.204L1086.78 163.656L745.297 255.157L1093.46 193.767L1095.34 204.422L747.177 265.812L1099.36 235L1100.31 245.779L748.118 276.592H1101.65V287.412H748.131L1100.31 318.223L1099.36 329.002L747.179 298.19L1095.34 359.58L1093.46 370.235L745.298 308.846L1086.78 400.346L1083.98 410.798L742.497 319.297L1074.71 440.212L1071.01 450.379L738.797 329.465L1059.2 478.873L1054.63 488.68L734.224 339.271L1040.39 516.037L1034.98 525.407L728.814 348.642L1018.41 551.419L1012.2 560.282L722.605 357.503L993.428 584.751L986.473 593.039L715.654 365.795L965.637 615.778L957.985 623.429L708.002 373.445L935.247 644.265L926.958 651.221L699.712 380.4L902.49 669.996L893.626 676.202L690.849 386.607L867.615 692.773L858.244 698.183L681.479 392.017L830.887 712.424L821.081 716.997L671.672 396.59L792.587 728.8L782.419 732.501L661.504 400.29L753.005 741.775L742.553 744.575L651.053 403.093L712.443 751.251L701.787 753.129L640.397 404.97L671.21 757.155L660.431 758.098L629.618 405.912Z" fill="black" fill-opacity="0.07"/>
</g>
</g>
<defs>
<linearGradient id="paint0_linear_550_5190" x1="606.5" y1="0.5" x2="606.5" y2="775.5" gradientUnits="userSpaceOnUse">
<stop stop-color="#D9D9D9" stop-opacity="0"/>
<stop offset="1" stop-color="#737373"/>
</linearGradient>
</defs>
</svg>
