<svg width="877" height="368" viewBox="0 0 877 368" fill="none" xmlns="http://www.w3.org/2000/svg">
<path opacity="0.035" d="M378.893 -361.468C369.14 -360.628 359.723 -359.619 357.874 -359.282C355.52 -358.61 345.598 -342.804 325.252 -307.493C309.109 -279.413 286.744 -240.739 275.478 -221.234C264.211 -201.897 244.706 -168.099 232.262 -146.408C219.819 -124.717 182.488 -59.981 149.362 -2.64294C116.235 54.6951 69.6563 135.237 45.9464 176.433C22.2366 217.629 1.88986 252.94 0.880928 254.79C-0.968776 258.153 5.42111 264.374 91.6846 343.067C196.445 438.574 320.207 551.737 388.814 614.456C414.037 637.492 435.729 656.661 437.075 656.997C438.252 657.333 470.201 629.253 507.868 594.783C545.703 560.313 624.231 488.682 682.413 435.548C740.762 382.413 808.193 320.872 832.407 298.676L875.449 259.4C876.14 258.769 876.302 257.743 875.837 256.931L871.251 248.905C868.224 243.692 843.841 201.319 816.937 154.574C789.864 107.83 732.018 7.61407 688.298 -68.2202C644.578 -144.054 602.875 -216.357 595.645 -228.8C588.414 -241.243 568.572 -275.545 551.756 -304.971C530.232 -342.131 519.975 -358.61 517.621 -359.114C501.142 -362.982 415.719 -364.327 378.893 -361.468ZM475.918 -311.697L488.811 -310.765C489.476 -310.717 490.074 -310.34 490.404 -309.761L501.478 -290.342C507.868 -279.076 517.116 -263.27 521.825 -254.863C526.701 -246.624 539.145 -224.933 549.57 -206.941C566.722 -177.011 628.939 -69.3972 726.469 99.7584C747.32 135.574 763.631 165.672 762.791 166.345C761.614 167.353 717.557 191.903 661.898 222.169L651.498 227.802C650.547 228.317 649.359 227.983 648.816 227.048L640.71 213.089C628.939 193.08 517.453 -0.120728 491.389 -45.5203C447.5 -122.027 439.597 -135.479 437.579 -135.479C436.57 -135.479 431.189 -127.576 425.64 -117.823C411.179 -92.7696 372.167 -25.0065 333.996 41.0752C326.429 54.0225 299.356 100.935 273.796 145.326C248.804 188.731 227.671 224.902 226.273 227.116C226.222 227.196 226.232 227.233 226.138 227.226C222.86 226.97 116.53 170.004 112.704 166.345C111.359 165.168 122.289 145.494 178.116 48.9781C183.329 40.0663 197.79 14.8443 210.402 -6.84662C222.845 -28.5375 242.688 -63.0076 254.458 -83.3534C282.204 -130.939 347.784 -244.942 368.972 -281.767L384.773 -309.457C385.093 -310.018 385.665 -310.39 386.307 -310.456L395.204 -311.361C409.329 -312.706 459.776 -313.042 475.918 -311.697ZM451.704 -13.2362C458.599 -0.961487 485.335 45.447 510.895 89.8378C596.99 238.984 604.557 252.436 603.044 253.781C601.026 255.799 439.429 344.58 437.747 344.58C436.066 344.58 274.469 255.799 272.283 253.781C271.442 252.94 272.956 248.568 275.982 243.356C278.673 238.48 303.56 195.434 330.969 147.848C358.546 100.263 393.523 39.5619 408.657 12.8266C423.959 -13.7406 437.075 -35.4315 437.747 -35.4315C438.588 -35.4315 444.81 -25.3428 451.704 -13.2362ZM158.778 250.082C358.546 359.882 430.012 398.892 434.384 400.573C438.588 402.255 441.447 401.078 463.139 389.139C546.712 343.571 779.27 215.78 783.81 213.089C786.385 211.516 788.838 210.308 789.72 210.189C789.933 210.16 790.082 210.324 790.19 210.51C791.122 212.115 795.945 220.212 801.466 229.568L811.425 246.84C811.894 247.653 811.734 248.683 811.041 249.316L694.52 355.678C571.094 468.336 538.472 498.098 476.591 554.764C455.908 573.764 438.42 589.234 437.747 589.234C437.243 589.234 397.39 553.419 349.298 509.532C301.374 465.646 217.296 388.971 162.646 339.031L64.4488 249.479C63.7575 248.848 63.5956 247.823 64.0591 247.01L74.1965 229.232C80.0819 218.638 85.2947 210.063 85.4628 210.063C85.7991 210.063 118.758 228.054 158.778 250.082Z" fill="black"/>
</svg>
