<svg width="18" height="18" viewBox="0 0 18 18" fill="none" xmlns="http://www.w3.org/2000/svg">
<path fill-rule="evenodd" clip-rule="evenodd" d="M3.9375 1.3125C3.50731 1.3125 3.13233 1.60528 3.02799 2.02262L1.88689 6.58705C1.7803 7.0134 1.39722 7.3125 0.957741 7.3125C0.428795 7.3125 0 7.74129 0 8.27024V14.5312C0 14.8937 0.293813 15.1875 0.65625 15.1875C1.01869 15.1875 1.3125 15.4813 1.3125 15.8438C1.3125 16.2062 1.60631 16.5 1.96875 16.5H2.53125C2.89369 16.5 3.1875 16.2062 3.1875 15.8438C3.1875 15.4813 3.48131 15.1875 3.84375 15.1875H14.1562C14.5187 15.1875 14.8125 15.4813 14.8125 15.8438C14.8125 16.2062 15.1063 16.5 15.4688 16.5H16.0312C16.3937 16.5 16.6875 16.2062 16.6875 15.8438C16.6875 15.4813 16.9813 15.1875 17.3438 15.1875C17.7062 15.1875 18 14.8937 18 14.5312V8.27023C18 7.74129 17.5712 7.3125 17.0423 7.3125C16.6028 7.3125 16.2197 7.0134 16.1131 6.58706L14.972 2.02262C14.8677 1.60528 14.4927 1.3125 14.0625 1.3125H3.9375ZM3.34701 8.4774L4.48011 3.94497C4.5914 3.4998 4.99139 3.1875 5.45025 3.1875H12.5497C13.0086 3.1875 13.4086 3.4998 13.5199 3.94496L14.653 8.4774L14.6928 8.63688C14.7737 8.96048 15.0645 9.1875 15.3981 9.1875C15.7995 9.1875 16.125 9.51296 16.125 9.91443V12.3125C16.125 12.8648 15.6773 13.3125 15.125 13.3125H2.875C2.32271 13.3125 1.875 12.8648 1.875 12.3125V9.91442C1.875 9.51295 2.20045 9.1875 2.60192 9.1875C2.93548 9.1875 3.22623 8.96049 3.30714 8.63689L3.34701 8.4774ZM6.12162 7.875C5.48187 7.875 5.00665 7.28258 5.14543 6.65807L5.45098 5.28307C5.55266 4.82553 5.95847 4.5 6.42717 4.5H11.5728C12.0415 4.5 12.4473 4.82553 12.549 5.28307L12.8546 6.65807C12.9934 7.28258 12.5181 7.875 11.8784 7.875H6.12162ZM5.25 11.25C5.25 11.7678 4.83027 12.1875 4.3125 12.1875C3.79473 12.1875 3.375 11.7678 3.375 11.25C3.375 10.7322 3.79473 10.3125 4.3125 10.3125C4.83027 10.3125 5.25 10.7322 5.25 11.25ZM14.625 11.25C14.625 10.7322 14.2053 10.3125 13.6875 10.3125C13.1697 10.3125 12.75 10.7322 12.75 11.25C12.75 11.7678 13.1697 12.1875 13.6875 12.1875C14.2053 12.1875 14.625 11.7678 14.625 11.25Z" fill="black"/>
</svg>
