<?xml version="1.0" encoding="utf-8"?>
<!-- Generator: Adobe Illustrator 27.0.0, SVG Export Plug-In . SVG Version: 6.00 Build 0)  -->
<svg version="1.1" id="Layer_1" xmlns="http://www.w3.org/2000/svg" xmlns:xlink="http://www.w3.org/1999/xlink" x="0px" y="0px"
	 viewBox="0 0 42 42" style="enable-background:new 0 0 42 42;" xml:space="preserve">
<path d="M10.7,25.2c7.3,4.1,9.9,5.5,10.1,5.6s0.3,0,1.1-0.4c3.1-1.7,11.5-6.5,11.7-6.6c0.1-0.1,0.2-0.1,0.2-0.1s0.2,0.3,0.4,0.7
	l0.4,0.7l-4.3,4l-0.9,0.8c-3.8,3.5-5,4.6-7.1,6.6c-0.8,0.7-1.4,1.3-1.4,1.3s-1.5-1.3-3.2-3c-1.8-1.6-4.8-4.5-6.8-6.4L7.3,25l0.4-0.7
	C7.8,24,8,23.7,8,23.7S9.2,24.3,10.7,25.2z"/>
<path d="M22.2,4.2h0.5L23.1,5c0.2,0.4,0.6,1,0.7,1.3c0.2,0.3,0.6,1.1,1,1.8c0.6,1.1,2.9,5.1,6.5,11.4c0.8,1.3,1.4,2.5,1.3,2.5
	c0,0-1.7,1-3.7,2.1l-0.4,0.2l-0.3-0.6c-0.5-0.7-4.5-7.9-5.5-9.5c-1.6-2.9-1.9-3.4-2-3.4c0,0-0.2,0.3-0.4,0.7c-0.5,0.9-2,3.5-3.3,5.9
	c-0.3,0.5-1.3,2.2-2.2,3.9c-0.9,1.7-1.7,3-1.7,3.1c0,0-4-2.1-4.1-2.3c0,0,0.4-0.8,2.4-4.4c0.2-0.3,0.7-1.3,1.2-2.1
	c0.5-0.8,1.2-2.1,1.6-2.9c1-1.7,3.3-5.7,4.1-7.2l0.1-0.1L19,4.3h0.4C19.7,4.2,21.6,4.2,22.2,4.2z"/>
</svg>
