<svg width="56" height="56" viewBox="0 0 56 56" fill="none" xmlns="http://www.w3.org/2000/svg">
<g clip-path="url(#clip0_2348_2481)">
<path d="M56 0H0V56H56V0Z" fill="#AB9FF2"/>
<path fill-rule="evenodd" clip-rule="evenodd" d="M24.3428 35.9392C22.2572 39.1351 18.7623 43.1794 14.112 43.1794C11.9136 43.1794 9.7998 42.2744 9.7998 38.3432C9.7998 28.3314 23.4691 12.833 36.152 12.833C43.3671 12.833 46.2421 17.8389 46.2421 23.5235C46.2421 30.8202 41.507 39.1633 36.8002 39.1633C35.3064 39.1633 34.5737 38.3432 34.5737 37.0422C34.5737 36.7028 34.63 36.3352 34.7428 35.9392C33.1363 38.6826 30.036 41.2279 27.133 41.2279C25.0192 41.2279 23.9482 39.8987 23.9482 38.0321C23.9482 37.3533 24.0892 36.6463 24.3428 35.9392ZM35.2679 23.3263C35.2679 24.9828 34.2907 25.811 33.1974 25.811C32.0875 25.811 31.1268 24.9828 31.1268 23.3263C31.1268 21.6699 32.0875 20.8416 33.1974 20.8416C34.2907 20.8416 35.2679 21.6699 35.2679 23.3263ZM41.4791 23.3264C41.4791 24.9829 40.5018 25.8111 39.4085 25.8111C38.2987 25.8111 37.3379 24.9829 37.3379 23.3264C37.3379 21.67 38.2987 20.8418 39.4085 20.8418C40.5018 20.8418 41.4791 21.67 41.4791 23.3264Z" fill="#FFFDF8"/>
</g>
<defs>
<clipPath id="clip0_2348_2481">
<rect width="56" height="56" rx="28" fill="white"/>
</clipPath>
</defs>
</svg>
