<svg xmlns="http://www.w3.org/2000/svg" xmlns:xlink="http://www.w3.org/1999/xlink" width="500" zoomAndPan="magnify" viewBox="0 0 375 374.999991" height="500" preserveAspectRatio="xMidYMid meet" version="1.0"><path fill="#ffffff" d="M 86.679688 232.359375 C 158.644531 276.945312 184.390625 292.785156 185.964844 293.46875 C 187.480469 294.152344 188.511719 293.671875 196.324219 288.824219 C 226.429688 270.324219 310.210938 218.429688 311.84375 217.335938 C 312.9375 216.585938 313.964844 216.039062 314.085938 216.175781 C 314.148438 216.3125 316.027344 219.863281 318.207031 224.027344 L 322.082031 231.609375 L 279.679688 275.238281 L 270.730469 284.441406 C 233.503906 322.746094 221.890625 334.695312 201.171875 356.082031 C 193.71875 363.796875 187.421875 370.078125 187.175781 370.078125 C 186.996094 370.078125 172.640625 355.535156 155.3125 337.714844 C 138.050781 319.894531 107.761719 288.757812 88.074219 268.480469 L 52.273438 231.675781 L 56.210938 223.890625 C 58.328125 219.589844 60.207031 216.109375 60.269531 216.109375 C 60.390625 216.109375 72.261719 223.414062 86.679688 232.359375 Z M 86.679688 232.359375 " fill-opacity="1" fill-rule="nonzero"/><path fill="#ffffff" d="M 200.929688 4.234375 L 205.957031 4.644531 L 210.136719 12.90625 C 212.4375 17.480469 215.769531 23.902344 217.464844 27.316406 C 219.222656 30.660156 223.707031 39.46875 227.460938 46.773438 C 233.640625 58.929688 256.054688 102.628906 291.1875 171.316406 C 298.703125 185.859375 304.578125 198.082031 304.273438 198.355469 C 303.847656 198.765625 287.976562 208.734375 267.925781 221.023438 L 263.566406 223.6875 L 260.292969 217.335938 C 256.054688 209.210938 215.890625 130.757812 206.5 112.324219 C 190.691406 81.253906 187.84375 75.792969 187.117188 75.792969 C 186.753906 75.792969 184.816406 79.003906 182.816406 82.960938 C 177.605469 93.136719 163.550781 120.652344 149.800781 147.488281 C 147.074219 152.746094 137.324219 171.792969 128.113281 189.820312 C 118.90625 207.847656 111.152344 222.800781 110.972656 223.074219 C 110.609375 223.480469 71.476562 199.855469 70.082031 198.355469 C 69.597656 197.878906 73.535156 189.886719 93.648438 150.695312 C 95.523438 147.078125 100.734375 136.835938 105.277344 128.027344 C 109.761719 119.21875 116.910156 105.222656 121.148438 96.960938 C 130.816406 78.273438 153.226562 34.363281 161.597656 17.964844 L 162.402344 16.390625 L 168.277344 4.78125 L 171.851562 4.371094 C 176.941406 3.828125 195.113281 3.691406 200.929688 4.234375 Z M 200.929688 4.234375 " fill-opacity="1" fill-rule="nonzero"/></svg>