<svg width="14" height="19" viewBox="0 0 14 19" fill="none" xmlns="http://www.w3.org/2000/svg">
<path d="M1.88853 11.6223C5.53726 13.8829 6.84257 14.686 6.92242 14.7206C6.99921 14.7552 7.05142 14.731 7.44762 14.4852C8.97406 13.5471 13.2217 10.9161 13.3046 10.8607C13.3599 10.8226 13.4121 10.7949 13.4183 10.8018C13.4213 10.8087 13.5166 10.9888 13.6271 11.1999L13.8237 11.5842L11.6738 13.7963L11.2201 14.263C9.33258 16.2051 8.74374 16.8109 7.69333 17.8951C7.31555 18.2863 6.99613 18.6048 6.98385 18.6048C6.97464 18.6048 6.24673 17.8674 5.36833 16.9639C4.49301 16.0604 2.95735 14.4818 1.95917 13.4536L0.144015 11.5877L0.343651 11.193C0.451147 10.9749 0.546358 10.7984 0.549429 10.7984C0.555572 10.7984 1.15755 11.1688 1.88853 11.6223Z" fill="black"/>
<path d="M7.68104 0.0562439L7.93596 0.0770149L8.14788 0.495897C8.26459 0.72784 8.43351 1.05326 8.51951 1.22635C8.60858 1.39598 8.83586 1.84256 9.02628 2.21297C9.33955 2.82918 10.4759 5.04476 12.2573 8.52738C12.6382 9.26475 12.9361 9.88442 12.9207 9.89827C12.8992 9.91904 12.0945 10.4245 11.0779 11.0476L10.8568 11.1826L10.6909 10.8607C10.4759 10.4487 8.43966 6.47104 7.9636 5.53635C7.16199 3.9612 7.01763 3.68426 6.98078 3.68426C6.96235 3.68426 6.86407 3.84696 6.76271 4.04775C6.49858 4.56357 5.78603 5.95869 5.08884 7.31919C4.95063 7.58576 4.45615 8.55161 3.98931 9.46554C3.52247 10.3795 3.12934 11.1376 3.12013 11.1515C3.1017 11.1722 1.11762 9.97443 1.04698 9.89827C1.02241 9.87404 1.22205 9.469 2.24173 7.4819C2.33694 7.29842 2.60107 6.77915 2.83142 6.33257C3.0587 5.88599 3.42112 5.17631 3.63611 4.75743C4.1262 3.80997 5.26259 1.58362 5.68688 0.752371L5.72768 0.672451L6.0256 0.0839367L6.2068 0.0631657C6.4648 0.035471 7.38619 0.0285492 7.68104 0.0562439Z" fill="black"/>
</svg>
