<svg width="274" height="557" viewBox="0 0 274 557" fill="none" xmlns="http://www.w3.org/2000/svg">
<g style="mix-blend-mode:soft-light" filter="url(#filter0_f_176_1704)">
<path d="M91.4595 304.508C219.621 376.417 265.47 401.964 268.275 403.066C270.972 404.167 272.806 403.396 286.723 395.577C340.339 365.735 489.537 282.044 492.45 280.282C494.392 279.071 496.226 278.19 496.442 278.41C496.55 278.63 499.894 284.357 503.778 291.074L510.682 303.297L435.166 373.664L419.233 388.509C352.932 450.285 332.249 469.556 295.353 504.045C282.084 516.489 270.864 526.62 270.433 526.62C270.109 526.62 244.541 503.164 213.688 474.423C182.942 445.682 129.002 395.467 93.9407 362.762L30.1835 303.407L37.1957 290.854C40.9715 283.916 44.3158 278.3 44.4237 278.3C44.6395 278.3 65.784 290.083 91.4595 304.508Z" fill="black"/>
<path d="M294.921 -63.4014L303.876 -62.7407L311.319 -49.4162C315.419 -42.0382 321.352 -31.6869 324.373 -26.1809C327.501 -20.785 335.484 -6.57965 342.173 5.20319C353.177 24.8044 393.092 95.281 455.663 206.061C469.04 229.517 479.505 249.228 478.965 249.669C478.21 250.33 449.945 266.407 414.237 286.229L406.47 290.523L400.644 280.282C393.092 267.178 321.568 140.65 304.846 110.918C276.69 60.8136 271.619 52.004 270.325 52.004C269.678 52.004 266.225 57.1796 262.665 63.5666C253.388 79.9744 228.359 124.353 203.871 167.63C199.016 176.109 181.647 206.832 165.25 235.904C148.852 264.975 135.043 289.092 134.719 289.532C134.072 290.193 64.3815 252.091 61.9003 249.669C61.0372 248.898 68.0495 236.014 103.866 172.805C107.21 166.969 116.488 150.451 124.579 136.246C132.562 122.04 145.292 99.4656 152.843 86.1411C170.058 56.003 209.973 -14.8162 224.877 -41.2579L226.31 -43.8001L236.774 -62.5204L243.139 -63.1812C252.201 -64.0621 284.565 -64.2823 294.921 -63.4014Z" fill="black"/>
</g>
<defs>
<filter id="filter0_f_176_1704" x="0.783472" y="-93.3629" width="539.298" height="649.382" filterUnits="userSpaceOnUse" color-interpolation-filters="sRGB">
<feFlood flood-opacity="0" result="BackgroundImageFix"/>
<feBlend mode="normal" in="SourceGraphic" in2="BackgroundImageFix" result="shape"/>
<feGaussianBlur stdDeviation="14.7" result="effect1_foregroundBlur_176_1704"/>
</filter>
</defs>
</svg>
