<svg width="16" height="12" viewBox="0 0 16 12" fill="none" xmlns="http://www.w3.org/2000/svg">
<g clip-path="url(#clip0_176_1696)">
<path d="M2.59976 9.15801C2.69631 9.06562 2.82907 9.01172 2.96988 9.01172H15.7393C15.9727 9.01172 16.0893 9.28121 15.9244 9.43905L13.4019 11.8529C13.3053 11.9453 13.1725 11.9992 13.0317 11.9992H0.262315C0.0289729 11.9992 -0.0876979 11.7297 0.0772505 11.5719L2.59976 9.15801Z" fill="#1C1616" fill-opacity="0.56"/>
<path d="M2.59976 0.146295C2.70033 0.053898 2.8331 0 2.96988 0H15.7393C15.9727 0 16.0893 0.26949 15.9244 0.427334L13.4019 2.84119C13.3053 2.93359 13.1725 2.98749 13.0317 2.98749H0.262315C0.0289729 2.98749 -0.0876979 2.718 0.0772505 2.56015L2.59976 0.146295Z" fill="#1C1616" fill-opacity="0.56"/>
<path d="M13.4019 4.62481C13.3053 4.53241 13.1725 4.47852 13.0317 4.47852H0.262315C0.0289729 4.47852 -0.0876979 4.74801 0.0772505 4.90585L2.59976 7.31971C2.69631 7.41211 2.82907 7.466 2.96988 7.466H15.7393C15.9727 7.466 16.0893 7.19651 15.9244 7.03867L13.4019 4.62481Z" fill="#1C1616" fill-opacity="0.56"/>
</g>
<defs>
<clipPath id="clip0_176_1696">
<rect width="16" height="12" fill="white"/>
</clipPath>
</defs>
</svg>
